#!OML:ASF E:\motion texture\Top Level 1\Subject 1\Session 1\male.ASF
:FULLY-SPECIFIED
:DEGREES
711
root -37.8372 17.9793 5.54117 117.621 -81.5206 -114.126
lowerback -2.45477 0.182888 6.84944
upperback -0.288715 -0.0316646 2.50432
thorax 1.0818 -0.0179593 -1.25893
lowerneck -10.8455 -0.206148 -4.70581
upperneck -2.81536 0.0169612 8.02817
head 1.00476 0.118736 3.46068
rclavicle 3.0998e-015 -3.70236e-014
rhumerus -37.8874 22.8556 -100.945
rradius 81.6931
rwrist -44.0856
rhand -3.92047 -59.8933
rfingers 7.12502
rthumb 21.8303 -448.682
lclavicle 3.0998e-015 -3.70236e-014
lhumerus -29.2548 -26.2066 101.721
lradius 119.476
lwrist 26.7424
lhand -11.6296 50.7682
lfingers 7.12502
lthumb 14.4139 -279.752
rfemur -3.81041 6.63889 34.4646
rtibia 18.6481
rfoot -11.6383 -7.9411
rtoes 16.6878
lfemur -30.3526 5.28668 -6.60475
ltibia 42.3427
lfoot -12.5006 6.60627
ltoes -14.2838
712
root -37.9579 17.9667 5.54353 119.755 -81.3093 -116.183
lowerback -2.44911 0.320563 6.95358
upperback -0.202073 0.144047 2.49016
thorax 1.18126 0.074557 -1.32508
lowerneck -11.1621 -0.291244 -4.66343
upperneck -2.04436 -0.116213 7.95716
head 1.32291 0.0719604 3.43384
rclavicle -1.83565e-015 1.34677e-014
rhumerus -37.8827 23.7314 -101.48
rradius 81.8459
rwrist -44.4281
rhand -3.14754 -59.726
rfingers 7.12502
rthumb 22.5724 -448.426
lclavicle -1.83565e-015 1.34677e-014
lhumerus -30.8353 -26.0678 102.269
lradius 118.744
lwrist 25.4639
lhand -11.9689 50.1949
lfingers 7.12502
lthumb 14.087 -280.303
rfemur -3.51471 6.67901 34.5053
rtibia 18.8179
rfoot -11.9808 -7.62713
rtoes 16.3505
lfemur -30.4655 5.18127 -6.49306
ltibia 40.7923
lfoot -12.0919 6.54746
ltoes -14.3819
713
root -38.0789 17.9532 5.54619 121.76 -81.0938 -118.109
lowerback -2.44483 0.456516 7.04807
upperback -0.117858 0.317611 2.47746
thorax 1.27951 0.165993 -1.38405
lowerneck -11.4729 -0.376573 -4.62571
upperneck -1.26449 -0.249974 7.88765
head 1.64521 0.0243103 3.40966
rclavicle -4.55807e-015 -2.05245e-014
rhumerus -37.865 24.5936 -101.994
rradius 82.0081
rwrist -44.7737
rhand -2.35445 -59.543
rfingers 7.12502
rthumb 23.3334 -448.149
lclavicle -4.55807e-015 -2.05245e-014
lhumerus -32.318 -25.903 102.804
lradius 117.901
lwrist 24.0754
lhand -12.3196 49.5508
lfingers 7.12502
lthumb 13.749 -280.923
rfemur -3.23902 6.7125 34.5347
rtibia 19.0234
rfoot -12.3235 -7.31675
rtoes 15.9804
lfemur -30.5423 5.04991 -6.37795
ltibia 39.2431
lfoot -11.6382 6.4959
ltoes -14.4953
714
root -38.2001 17.939 5.54919 123.639 -80.8779 -119.912
lowerback -2.44351 0.590206 7.13008
upperback -0.0331464 0.488105 2.4661
thorax 1.38026 0.256027 -1.43439
lowerneck -11.7817 -0.462756 -4.5903
upperneck -0.477517 -0.3853 7.81739
head 1.97221 -0.0248078 3.38665
rclavicle 3.3079e-016 -3.16068e-014
rhumerus -37.8272 25.444 -102.483
rradius 82.1753
rwrist -45.1219
rhand -1.54145 -59.3531
rfingers 7.12502
rthumb 24.1131 -447.858
lclavicle 3.3079e-016 -3.16068e-014
lhumerus -33.6867 -25.72 103.319
lradius 116.944
lwrist 22.5763
lhand -12.6745 48.8457
lfingers 7.12502
lthumb 13.407 -281.606
rfemur -2.98234 6.73842 34.5506
rtibia 19.2657
rfoot -12.6638 -7.0103
rtoes 15.5817
lfemur -30.5841 4.89201 -6.26291
ltibia 37.7056
lfoot -11.1505 6.4504
ltoes -14.6116
715
root -38.3215 17.9241 5.55246 125.399 -80.6654 -121.599
lowerback -2.4417 0.721358 7.19807
upperback 0.0485432 0.655829 2.45496
thorax 1.4778 0.34455 -1.47646
lowerneck -12.0817 -0.550341 -4.55907
upperneck 0.314086 -0.522808 7.74872
head 2.30234 -0.0758292 3.36565
rclavicle -1.65612e-014 -4.74101e-014
rhumerus -37.7762 26.2714 -102.949
rradius 82.3476
rwrist -45.4684
rhand -0.709139 -59.1667
rfingers 7.12502
rthumb 24.911 -447.563
lclavicle -1.65612e-014 -4.74101e-014
lhumerus -34.9447 -25.5262 103.815
lradius 115.879
lwrist 20.9675
lhand -13.0169 48.1077
lfingers 7.12502
lthumb 13.0769 -282.322
rfemur -2.74445 6.75586 34.5508
rtibia 19.5458
rfoot -13.0004 -6.71075
rtoes 15.145
lfemur -30.5927 4.70685 -6.15044
ltibia 36.1888
lfoot -10.6354 6.40752
ltoes -14.7133
716
root -38.4433 17.9087 5.55594 127.038 -80.4573 -123.165
lowerback -2.43966 0.849136 7.25295
upperback 0.127463 0.819605 2.44461
thorax 1.57231 0.43095 -1.51024
lowerneck -12.3746 -0.638768 -4.53385
upperneck 1.10886 -0.661588 7.68402
head 2.63576 -0.128283 3.34767
rclavicle -8.53066e-015 -3.31473e-014
rhumerus -37.7115 27.0753 -103.392
rradius 82.524
rwrist -45.8151
rhand 0.122447 -58.9816
rfingers 7.12502
rthumb 25.7077 -447.265
lclavicle -8.53066e-015 -3.31473e-014
lhumerus -36.0868 -25.3278 104.288
lradius 114.709
lwrist 19.2457
lhand -13.3669 47.3081
lfingers 7.12502
lthumb 12.7395 -283.101
rfemur -2.52649 6.76407 34.5376
rtibia 19.8658
rfoot -13.3312 -6.41984
rtoes 14.6667
lfemur -30.5708 4.49508 -6.03938
ltibia 34.7028
lfoot -10.0969 6.37117
ltoes -14.7938
717
root -38.5654 17.8928 5.55971 128.554 -80.257 -124.612
lowerback -2.43794 0.972507 7.29619
upperback 0.202988 0.978069 2.43395
thorax 1.66323 0.514514 -1.53778
lowerneck -12.7287 -0.719587 -4.42228
upperneck 2.18245 -0.817019 7.81659
head 2.75782 -0.162127 3.04771
rclavicle 4.395e-016 2.44008e-014
rhumerus -37.6312 27.8516 -103.812
rradius 82.697
rwrist -46.148
rhand 0.961457 -58.7971
rfingers 7.12502
rthumb 26.511 -446.962
lclavicle 4.395e-016 2.44008e-014
lhumerus -37.114 -25.1297 104.738
lradius 113.44
lwrist 17.4024
lhand -13.7157 46.4399
lfingers 7.12502
lthumb 12.4032 -283.948
rfemur -2.33007 6.75768 34.5091
rtibia 20.2275
rfoot -13.6538 -6.13465
rtoes 14.1482
lfemur -30.5223 4.25691 -5.9331
ltibia 33.258
lfoot -9.54009 6.34146
ltoes -14.8458
718
root -38.6878 17.8767 5.56366 129.935 -80.0655 -125.927
lowerback -2.43834 1.09044 7.32825
upperback 0.27637 1.12951 2.42486
thorax 1.75261 0.594425 -1.55744
lowerneck -12.9931 -0.807532 -4.40657
upperneck 2.99935 -0.959875 7.76899
head 3.0547 -0.214653 3.02576
rclavicle 1.8869e-014 4.92489e-014
rhumerus -37.5341 28.6002 -104.205
rradius 82.8576
rwrist -46.4526
rhand 1.80367 -58.6126
rfingers 7.12502
rthumb 27.3168 -446.654
lclavicle 1.8869e-014 4.92489e-014
lhumerus -38.0207 -24.9359 105.162
lradius 112.077
lwrist 15.4334
lhand -14.0672 45.5427
lfingers 7.12502
lthumb 12.0644 -284.825
rfemur -2.15528 6.73866 34.4695
rtibia 20.6309
rfoot -13.9641 -5.86017
rtoes 13.5895
lfemur -30.452 3.99377 -5.82961
ltibia 31.8668
lfoot -8.97285 6.32167
ltoes -14.8698
719
root -38.8105 17.8603 5.5678 131.193 -79.8805 -127.121
lowerback -2.43975 1.20368 7.35355
upperback 0.345033 1.27506 2.4171
thorax 1.83722 0.671102 -1.57198
lowerneck -13.2428 -0.895604 -4.39801
upperneck 3.81049 -1.10336 7.72883
head 3.34856 -0.268255 3.00694
rclavicle -4.0844e-015 -3.40916e-014
rhumerus -37.4226 29.3189 -104.573
rradius 82.9973
rwrist -46.7377
rhand 2.63142 -58.4068
rfingers 7.12502
rthumb 28.1083 -446.32
lclavicle -4.0844e-015 -3.40916e-014
lhumerus -38.8131 -24.7465 105.558
lradius 110.627
lwrist 13.3483
lhand -14.4125 44.6375
lfingers 7.12502
lthumb 11.7314 -285.711
rfemur -2.00548 6.70583 34.4215
rtibia 21.08
rfoot -14.2593 -5.59225
rtoes 12.9925
lfemur -30.3633 3.71049 -5.72707
ltibia 30.5386
lfoot -8.4011 6.31373
ltoes -14.8599
720
root -38.9337 17.8438 5.57219 132.339 -79.7075 -128.206
lowerback -2.44095 1.31014 7.36872
upperback 0.410892 1.41212 2.40964
thorax 1.91802 0.743315 -1.58074
lowerneck -13.4826 -0.982387 -4.39239
upperneck 4.61458 -1.2459 7.69186
head 3.63965 -0.322208 2.98934
rclavicle -6.44808e-015 -4.88513e-014
rhumerus -37.2945 30.0039 -104.915
rradius 83.1177
rwrist -47.0191
rhand 3.44396 -58.2141
rfingers 7.12502
rthumb 28.8847 -445.998
lclavicle -6.44808e-015 -4.88513e-014
lhumerus -39.4912 -24.5602 105.922
lradius 109.101
lwrist 11.1627
lhand -14.7483 43.7322
lfingers 7.12502
lthumb 11.4075 -286.598
rfemur -1.87908 6.65568 34.3601
rtibia 21.5753
rfoot -14.5359 -5.32973
rtoes 12.3609
lfemur -30.2559 3.40678 -5.63207
ltibia 29.2787
lfoot -7.83179 6.31738
ltoes -14.8145
721
root -39.0571 17.8273 5.57687 133.369 -79.5502 -129.18
lowerback -2.44148 1.40871 7.37438
upperback 0.472757 1.53938 2.40209
thorax 1.99333 0.810322 -1.5846
lowerneck -13.7107 -1.06771 -4.3938
upperneck 5.40817 -1.387 7.66306
head 3.92673 -0.376145 2.97521
rclavicle -3.85145e-015 -5.36222e-014
rhumerus -37.1503 30.6508 -105.227
rradius 83.2146
rwrist -47.2948
rhand 4.23037 -58.0388
rfingers 7.12502
rthumb 29.6356 -445.691
lclavicle -3.85145e-015 -5.36222e-014
lhumerus -40.0591 -24.381 106.254
lradius 107.51
lwrist 8.89848
lhand -15.0794 42.8283
lfingers 7.12502
lthumb 11.0882 -287.485
rfemur -1.7796 6.58303 34.2833
rtibia 22.1188
rfoot -14.7899 -5.07004
rtoes 11.6986
lfemur -30.1352 3.08392 -5.54864
ltibia 28.0936
lfoot -7.26427 6.32974
ltoes -14.7292
722
root -39.181 17.811 5.58174 134.294 -79.4078 -130.053
lowerback -2.44026 1.49986 7.37076
upperback 0.530357 1.65754 2.39481
thorax 2.06225 0.872431 -1.58341
lowerneck -13.9256 -1.15178 -4.40016
upperneck 6.18824 -1.52721 7.64159
head 4.20868 -0.430384 2.96391
rclavicle 6.68413e-015 2.64384e-014
rhumerus -36.9933 31.2587 -105.514
rradius 83.2837
rwrist -47.5609
rhand 4.96274 -57.8593
rfingers 7.12502
rthumb 30.3344 -445.385
lclavicle 6.68413e-015 2.64384e-014
lhumerus -40.5219 -24.2123 106.554
lradius 105.865
lwrist 6.57767
lhand -15.4094 41.9328
lfingers 7.12502
lthumb 10.7699 -288.363
rfemur -1.70695 6.49001 34.1932
rtibia 22.712
rfoot -15.0161 -4.81384
rtoes 11.0077
lfemur -30.0007 2.74725 -5.47622
ltibia 26.9875
lfoot -6.66357 6.47646
ltoes -14.4897
723
root -39.3052 17.795 5.5869 135.118 -79.2828 -130.831
lowerback -2.43714 1.58252 7.35846
upperback 0.583406 1.76524 2.38749
thorax 2.12424 0.928944 -1.5779
lowerneck -14.1277 -1.23388 -4.41287
upperneck 6.95167 -1.66532 7.62802
head 4.48455 -0.48431 2.95595
rclavicle -1.52505e-015 4.22914e-014
rhumerus -36.8218 31.8264 -105.772
rradius 83.319
rwrist -47.8096
rhand 5.64816 -57.6867
rfingers 7.12502
rthumb 30.988 -445.09
lclavicle -1.52505e-015 4.22914e-014
lhumerus -40.8841 -24.0578 106.825
lradius 104.175
lwrist 4.20757
lhand -15.7425 41.0474
lfingers 7.12502
lthumb 10.4486 -289.232
rfemur -1.66359 6.37306 34.0876
rtibia 23.3555
rfoot -15.2095 -4.55664
rtoes 10.2973
lfemur -29.8562 2.39868 -5.4192
ltibia 25.9643
lfoot -6.11532 6.4809
ltoes -14.3367
724
root -39.4297 17.7793 5.59225 135.86 -79.1759 -131.531
lowerback -2.43115 1.65683 7.33525
upperback 0.632172 1.86284 2.37996
thorax 2.17895 0.980017 -1.56712
lowerneck -14.3168 -1.31397 -4.4285
upperneck 7.69406 -1.80137 7.61889
head 4.7529 -0.538063 2.94969
rclavicle 1.23464e-014 5.89894e-014
rhumerus -36.6355 32.3528 -106.003
rradius 83.3182
rwrist -48.0318
rhand 6.26 -57.5238
rfingers 7.12502
rthumb 31.571 -444.815
lclavicle 1.23464e-014 5.89894e-014
lhumerus -41.1482 -23.9207 107.065
lradius 102.448
lwrist 1.7978
lhand -16.0589 40.1816
lfingers 7.12502
lthumb 10.1433 -290.083
rfemur -1.65076 6.23617 33.966
rtibia 24.0493
rfoot -15.3638 -4.30048
rtoes 9.56676
lfemur -29.7032 2.04381 -5.38011
ltibia 25.0264
lfoot -5.57745 6.48813
ltoes -14.1358
725
root -39.5546 17.7642 5.59781 136.537 -79.0883 -132.171
lowerback -2.4222 1.72269 7.29944
upperback 0.676778 1.95032 2.37149
thorax 2.22636 1.02562 -1.55093
lowerneck -14.4948 -1.3911 -4.45079
upperneck 8.41408 -1.93389 7.61942
head 5.01361 -0.590643 2.94751
rclavicle -9.16584e-015 -1.45113e-014
rhumerus -36.4352 32.8409 -106.206
rradius 83.2785
rwrist -48.2257
rhand 6.84167 -57.3533
rfingers 7.12502
rthumb 32.125 -444.534
lclavicle -9.16584e-015 -1.45113e-014
lhumerus -41.3197 -23.801 107.275
lradius 100.696
lwrist -0.630876
lhand -16.3589 39.3517
lfingers 7.12502
lthumb 9.85393 -290.899
rfemur -1.67019 6.07753 33.8251
rtibia 24.7952
rfoot -15.4749 -4.04015
rtoes 8.83485
lfemur -29.542 1.68751 -5.36412
ltibia 24.1749
lfoot -5.05273 6.49417
ltoes -13.8914
